# xmcd
#
# Track frame offsets:
#	150
#	13875
#	31650
#	50100
#	63825
#	79500
#	101100
#	116175
#	134400
#	150300
#	169500
#	183525
#	200475
#	215100
#	232950
#	246600
#	260325
#
# Disc length: 3491 seconds
#
# Revision: 1
# Processed by: cddbd v1.5.1PL2 Copyright (c) Steve Scherf et al.
# Submitted via: audiograbber 1.83.01
#
DISCID=f00da111
DTITLE=Big Country - BCY006
DYEAR=2006
DGENRE=KARAOKE
TTITLE0=Toby Keith - Get Drunk and Be Somebody
TTITLE1=Trace Adkins - Honky Tonk Badonkadonk
TTITLE2=Sugarland - Just Might (Make Me Believe)
TTITLE3=Miranda Lambert - Kerosene
TTITLE4=Sara Evans - Cheatin'
TTITLE5=Brooks and Dunn - Believe
TTITLE6=Kenny Chesney - Living In Fast Forward
TTITLE7=Kenny Chesney - Who You'd Be Today
TTITLE8=Time McGraw - My Old Friend
TTITLE9=Keith Urban - Tonight I Wanna Cry
TTITLE10=Montgomery Gentry - She Don't Tell Me To
TTITLE11=Lee Ann Womack - Twenty Years and Two Husbands Ago
TTITLE12=Trent Tomlinson - Drunker Then Me
TTITLE13=Rocky Lynne - Lipstick
TTITLE14=Jamey Johnson - Dollar
TTITLE15=Toby Keith - Get Drunk and Be Somebody (Vocal Version)
TTITLE16=Blank Track - Blank Track
EXTD=
EXTT0=
EXTT1=
EXTT2=
EXTT3=
EXTT4=
EXTT5=
EXTT6=
EXTT7=
EXTT8=
EXTT9=
EXTT10=
EXTT11=
EXTT12=
EXTT13=
EXTT14=
EXTT15=
EXTT16=
PLAYORDER=
